<svg xmlns="http://www.w3.org/2000/svg" viewBox="0 0 100 100" width="32" height="32">
  <rect width="100" height="100" fill="#f8fafc" rx="16"/>
  
  <!-- Construction site base -->
  <rect x="15" y="75" width="70" height="8" fill="#8B4513" rx="2"/>
  
  <!-- Crane tower -->
  <rect x="45" y="25" width="6" fill="#FFD700"/>
  
  <!-- Crane arm -->
  <rect x="25" y="25" width="40" height="4" fill="#FFD700"/>
  
  <!-- Crane hook -->
  <rect x="63" y="29" width="2" height="8" fill="#666"/>
  <circle cx="64" cy="39" r="2" fill="#666"/>
  
  <!-- Building under construction -->
  <rect x="20" y="45" width="25" height="30" fill="#E5E7EB" stroke="#9CA3AF" stroke-width="1"/>
  <rect x="22" y="50" width="4" height="4" fill="#60A5FA"/>
  <rect x="28" y="50" width="4" height="4" fill="#60A5FA"/>
  <rect x="34" y="50" width="4" height="4" fill="#60A5FA"/>
  <rect x="22" y="57" width="4" height="4" fill="#60A5FA"/>
  <rect x="28" y="57" width="4" height="4" fill="#60A5FA"/>
  <rect x="34" y="57" width="4" height="4" fill="#60A5FA"/>
  <rect x="22" y="64" width="4" height="4" fill="#60A5FA"/>
  <rect x="28" y="64" width="4" height="4" fill="#60A5FA"/>
  <rect x="34" y="64" width="4" height="4" fill="#60A5FA"/>
  
  <!-- Second building -->
  <rect x="55" y="35" width="20" height="40" fill="#F3F4F6" stroke="#9CA3AF" stroke-width="1"/>
  <rect x="57" y="40" width="3" height="3" fill="#60A5FA"/>
  <rect x="62" y="40" width="3" height="3" fill="#60A5FA"/>
  <rect x="67" y="40" width="3" height="3" fill="#60A5FA"/>
  <rect x="57" y="46" width="3" height="3" fill="#60A5FA"/>
  <rect x="62" y="46" width="3" height="3" fill="#60A5FA"/>
  <rect x="67" y="46" width="3" height="3" fill="#60A5FA"/>
  <rect x="57" y="52" width="3" height="3" fill="#60A5FA"/>
  <rect x="62" y="52" width="3" height="3" fill="#60A5FA"/>
  <rect x="67" y="52" width="3" height="3" fill="#60A5FA"/>
  <rect x="57" y="58" width="3" height="3" fill="#60A5FA"/>
  <rect x="62" y="58" width="3" height="3" fill="#60A5FA"/>
  <rect x="67" y="58" width="3" height="3" fill="#60A5FA"/>
  <rect x="57" y="64" width="3" height="3" fill="#60A5FA"/>
  <rect x="62" y="64" width="3" height="3" fill="#60A5FA"/>
  <rect x="67" y="64" width="3" height="3" fill="#60A5FA"/>
  
  <!-- Small sparks/construction activity -->
  <circle cx="30" cy="42" r="1" fill="#FCD34D"/>
  <circle cx="32" cy="40" r="0.5" fill="#F59E0B"/>
  <circle cx="68" cy="32" r="1" fill="#FCD34D"/>
  <circle cx="70" cy="30" r="0.5" fill="#F59E0B"/>
</svg> 