<svg xmlns="http://www.w3.org/2000/svg" viewBox="0 0 100 100">
  <rect width="100" height="100" fill="#ffffff"/>
  
  <!-- Simple construction icon -->
  <rect x="40" y="20" width="4" height="55" fill="#FFD700"/>
  <rect x="20" y="20" width="40" height="4" fill="#FFD700"/>
  <rect x="58" y="24" width="2" height="10" fill="#666"/>
  <circle cx="59" cy="36" r="2" fill="#666"/>
  
  <!-- Buildings -->
  <rect x="15" y="40" width="20" height="35" fill="#e5e7eb" stroke="#9ca3af"/>
  <rect x="17" y="45" width="3" height="3" fill="#3b82f6"/>
  <rect x="22" y="45" width="3" height="3" fill="#3b82f6"/>
  <rect x="27" y="45" width="3" height="3" fill="#3b82f6"/>
  <rect x="17" y="52" width="3" height="3" fill="#3b82f6"/>
  <rect x="22" y="52" width="3" height="3" fill="#3b82f6"/>
  <rect x="27" y="52" width="3" fill="#3b82f6"/>
  
  <rect x="65" y="30" width="18" height="45" fill="#f3f4f6" stroke="#9ca3af"/>
  <rect x="67" y="35" width="2" height="2" fill="#3b82f6"/>
  <rect x="71" y="35" width="2" height="2" fill="#3b82f6"/>
  <rect x="75" y="35" width="2" height="2" fill="#3b82f6"/>
  <rect x="79" y="35" width="2" height="2" fill="#3b82f6"/>
  
  <!-- Ground -->
  <rect x="10" y="75" width="80" height="6" fill="#8B4513"/>
</svg> 